<?xml version="1.0" encoding="UTF-8"?>
<!DOCTYPE svg PUBLIC "-//W3C//DTD SVG 1.1//EN" "http://www.w3.org/Graphics/SVG/1.1/DTD/svg11.dtd">
<svg xmlns="http://www.w3.org/2000/svg" version="1.1" width="900px" height="1440px" style="shape-rendering:geometricPrecision; text-rendering:geometricPrecision; image-rendering:optimizeQuality; fill-rule:evenodd; clip-rule:evenodd" xmlns:xlink="http://www.w3.org/1999/xlink">
<g><path style="opacity:1" fill="#ededed" d="M -0.5,-0.5 C 299.5,-0.5 599.5,-0.5 899.5,-0.5C 899.5,479.5 899.5,959.5 899.5,1439.5C 599.5,1439.5 299.5,1439.5 -0.5,1439.5C -0.5,959.5 -0.5,479.5 -0.5,-0.5 Z"/></g>
<g><path style="opacity:1" fill="#fcfcfc" d="M 439.5,717.5 C 434.833,716.167 430.167,714.833 425.5,713.5C 424.817,711.824 423.483,711.157 421.5,711.5C 406.72,707.907 392.054,703.907 377.5,699.5C 376.817,697.824 375.483,697.157 373.5,697.5C 363.415,695.145 353.415,692.479 343.5,689.5C 342.817,687.824 341.483,687.157 339.5,687.5C 334.467,686.989 329.801,685.323 325.5,682.5C 322.805,679.352 321.472,675.685 321.5,671.5C 324.436,658.697 327.77,646.031 331.5,633.5C 333.176,632.817 333.843,631.483 333.5,629.5C 335.855,619.415 338.521,609.415 341.5,599.5C 343.176,598.817 343.843,597.483 343.5,595.5C 346.218,583.292 349.551,571.292 353.5,559.5C 363.282,527.128 372.949,494.461 382.5,461.5C 384.791,455.546 389.124,452.212 395.5,451.5C 460.258,470.189 524.924,489.189 589.5,508.5C 598.787,512.645 601.787,519.645 598.5,529.5C 578.495,597.523 558.495,665.523 538.5,733.5C 536.167,735.833 533.833,738.167 531.5,740.5C 529.5,740.833 527.5,741.167 525.5,741.5C 518.098,740.15 510.765,738.483 503.5,736.5C 482.13,730.159 460.796,723.826 439.5,717.5 Z"/></g>
<g><path style="opacity:1" fill="#c1c1c1" d="M 575.5,565.5 C 575.5,564.167 575.5,562.833 575.5,561.5C 571.63,560.201 567.63,559.534 563.5,559.5C 567.394,549.15 570.06,538.483 571.5,527.5C 517.002,512.113 462.669,496.113 408.5,479.5C 406.956,479.79 405.623,480.456 404.5,481.5C 401.77,490.505 398.77,499.171 395.5,507.5C 394.665,506.057 393.332,505.057 391.5,504.5C 388.191,503.285 384.858,502.285 381.5,501.5C 385.159,489.537 388.826,477.537 392.5,465.5C 393.623,464.456 394.956,463.79 396.5,463.5C 460.81,482.383 525.143,501.049 589.5,519.5C 585.169,535.143 580.502,550.476 575.5,565.5 Z"/></g>
<g><path style="opacity:1" fill="#fdfdfd" d="M 563.5,559.5 C 560.477,570.924 557.144,582.258 553.5,593.5C 548.884,606.627 544.884,619.96 541.5,633.5C 537.773,644.684 534.44,656.017 531.5,667.5C 529.863,672.044 528.529,676.711 527.5,681.5C 512.72,677.907 498.054,673.907 483.5,669.5C 482.817,667.824 481.483,667.157 479.5,667.5C 453.416,660.585 427.416,653.251 401.5,645.5C 400.817,643.824 399.483,643.157 397.5,643.5C 386.118,640.821 374.785,637.821 363.5,634.5C 362.337,632.715 361.67,630.715 361.5,628.5C 363.051,622.855 364.384,617.189 365.5,611.5C 369.311,602.707 371.978,593.373 373.5,583.5C 379.012,570.146 383.012,556.146 385.5,541.5C 387.036,539.975 388.036,537.975 388.5,535.5C 391.459,526.295 393.793,516.962 395.5,507.5C 398.77,499.171 401.77,490.505 404.5,481.5C 405.623,480.456 406.956,479.79 408.5,479.5C 462.669,496.113 517.002,512.113 571.5,527.5C 570.06,538.483 567.394,549.15 563.5,559.5 Z"/></g>
<g><path style="opacity:1" fill="#bababa" d="M 381.5,501.5 C 384.858,502.285 388.191,503.285 391.5,504.5C 393.332,505.057 394.665,506.057 395.5,507.5C 393.793,516.962 391.459,526.295 388.5,535.5C 388.036,537.975 387.036,539.975 385.5,541.5C 385.279,540.265 384.612,539.265 383.5,538.5C 379.463,537.491 375.463,536.491 371.5,535.5C 375.144,524.258 378.477,512.924 381.5,501.5 Z"/></g>
<g><path style="opacity:1" fill="#d1d1d1" d="M 455.5,527.5 C 457.453,533.074 458.12,539.074 457.5,545.5C 452.631,544.302 449.298,541.302 447.5,536.5C 447.833,535.5 448.167,534.5 448.5,533.5C 450.79,531.227 453.123,529.227 455.5,527.5 Z"/></g>
<g><path style="opacity:1" fill="#b7b7b7" d="M 461.5,529.5 C 462.735,529.721 463.735,530.388 464.5,531.5C 467.167,535.5 469.833,539.5 472.5,543.5C 473.429,544.689 473.762,546.022 473.5,547.5C 475.492,547.672 477.158,547.005 478.5,545.5C 478.833,546.5 479.167,547.5 479.5,548.5C 477.079,554.914 472.412,558.247 465.5,558.5C 461.254,560.129 457.254,562.129 453.5,564.5C 447.537,565.496 441.537,565.829 435.5,565.5C 435.173,560.786 435.507,556.12 436.5,551.5C 438.588,547.07 439.921,542.404 440.5,537.5C 444.833,541.833 449.167,546.167 453.5,550.5C 455.396,551.466 457.396,551.799 459.5,551.5C 460.729,544.23 461.395,536.896 461.5,529.5 Z"/></g>
<g><path style="opacity:1" fill="#b4b4b4" d="M 371.5,535.5 C 375.463,536.491 379.463,537.491 383.5,538.5C 384.612,539.265 385.279,540.265 385.5,541.5C 383.012,556.146 379.012,570.146 373.5,583.5C 373.5,581.5 373.5,579.5 373.5,577.5C 370.379,577.462 367.379,576.795 364.5,575.5C 362.696,575.986 361.029,576.653 359.5,577.5C 363.5,563.5 367.5,549.5 371.5,535.5 Z"/></g>
<g><path style="opacity:1" fill="#cccccc" d="M 441.5,621.5 C 417.143,622.157 393.143,621.49 369.5,619.5C 374.543,598.698 380.21,578.031 386.5,557.5C 387.623,556.456 388.956,555.79 390.5,555.5C 393.379,556.795 396.379,557.462 399.5,557.5C 404.061,560.033 409.061,562.033 414.5,563.5C 415.5,563.167 416.5,562.833 417.5,562.5C 412.456,559.818 407.123,558.151 401.5,557.5C 401.5,556.167 401.5,554.833 401.5,553.5C 406.106,549.851 410.773,546.184 415.5,542.5C 421.996,539.581 428.662,537.248 435.5,535.5C 435.904,540.478 434.904,545.145 432.5,549.5C 431.503,556.134 431.17,562.8 431.5,569.5C 441.82,569.71 441.82,571.043 431.5,573.5C 431.5,574.833 431.5,576.167 431.5,577.5C 433.604,577.799 435.604,577.466 437.5,576.5C 447.5,571.833 457.5,567.167 467.5,562.5C 470.167,561.833 472.833,561.167 475.5,560.5C 479.5,556.5 483.5,552.5 487.5,548.5C 489.99,546.917 492.657,545.917 495.5,545.5C 497.043,552.754 498.376,560.087 499.5,567.5C 497.911,574.936 495.911,582.269 493.5,589.5C 494.191,592.198 494.858,594.865 495.5,597.5C 478.217,598.922 460.884,599.922 443.5,600.5C 442.337,602.285 441.67,604.285 441.5,606.5C 443.751,611.345 445.751,616.345 447.5,621.5C 445.5,621.5 443.5,621.5 441.5,621.5 Z"/></g>
<g><path style="opacity:1" fill="#9f9f9f" d="M 353.5,559.5 C 349.551,571.292 346.218,583.292 343.5,595.5C 341.824,596.183 341.157,597.517 341.5,599.5C 338.521,609.415 335.855,619.415 333.5,629.5C 331.824,630.183 331.157,631.517 331.5,633.5C 327.77,646.031 324.436,658.697 321.5,671.5C 321.472,675.685 322.805,679.352 325.5,682.5C 329.801,685.323 334.467,686.989 339.5,687.5C 340.183,689.176 341.517,689.843 343.5,689.5C 353.415,692.479 363.415,695.145 373.5,697.5C 374.183,699.176 375.517,699.843 377.5,699.5C 392.054,703.907 406.72,707.907 421.5,711.5C 422.183,713.176 423.517,713.843 425.5,713.5C 430.167,714.833 434.833,716.167 439.5,717.5C 405.22,728.413 370.553,738.746 335.5,748.5C 326.704,751.257 319.704,748.924 314.5,741.5C 299.231,691.757 284.898,641.757 271.5,591.5C 271.599,584.293 274.932,579.293 281.5,576.5C 305.357,568.871 329.357,561.871 353.5,555.5C 353.5,556.833 353.5,558.167 353.5,559.5 Z"/></g>
<g><path style="opacity:1" fill="#d5d5d5" d="M 505.5,559.5 C 503.631,561.635 502.964,564.302 503.5,567.5C 502.206,565.952 501.539,563.952 501.5,561.5C 501.283,554.767 502.617,554.101 505.5,559.5 Z"/></g>
<g><path style="opacity:1" fill="#e4e4e4" d="M 401.5,553.5 C 401.5,554.833 401.5,556.167 401.5,557.5C 407.123,558.151 412.456,559.818 417.5,562.5C 416.5,562.833 415.5,563.167 414.5,563.5C 409.061,562.033 404.061,560.033 399.5,557.5C 399.157,555.517 399.824,554.183 401.5,553.5 Z"/></g>
<g><path style="opacity:1" fill="#b9b9b9" d="M 563.5,559.5 C 567.63,559.534 571.63,560.201 575.5,561.5C 575.5,562.833 575.5,564.167 575.5,565.5C 573.058,577.304 569.724,588.637 565.5,599.5C 565.672,597.508 565.005,595.842 563.5,594.5C 560.968,593.881 558.635,592.881 556.5,591.5C 555.735,592.612 554.735,593.279 553.5,593.5C 557.144,582.258 560.477,570.924 563.5,559.5 Z"/></g>
<g><path style="opacity:1" fill="#b6b6b6" d="M 505.5,559.5 C 507.492,559.328 509.158,559.995 510.5,561.5C 511.833,566.833 513.167,572.167 514.5,577.5C 517.752,582.334 520.752,587.334 523.5,592.5C 515.528,593.498 507.528,593.831 499.5,593.5C 499.996,584.688 501.329,576.021 503.5,567.5C 502.964,564.302 503.631,561.635 505.5,559.5 Z"/></g>
<g><path style="opacity:1" fill="#adadad" d="M 373.5,583.5 C 371.978,593.373 369.311,602.707 365.5,611.5C 362.103,611.259 358.769,610.593 355.5,609.5C 353.333,609.87 351.333,610.537 349.5,611.5C 352.53,600.043 355.863,588.71 359.5,577.5C 361.029,576.653 362.696,575.986 364.5,575.5C 367.379,576.795 370.379,577.462 373.5,577.5C 373.5,579.5 373.5,581.5 373.5,583.5 Z"/></g>
<g><path style="opacity:1" fill="#b4b4b4" d="M 565.5,599.5 C 563.058,611.304 559.724,622.637 555.5,633.5C 551.975,633.785 548.642,633.119 545.5,631.5C 544.133,632.225 542.8,632.892 541.5,633.5C 544.884,619.96 548.884,606.627 553.5,593.5C 554.735,593.279 555.735,592.612 556.5,591.5C 558.635,592.881 560.968,593.881 563.5,594.5C 565.005,595.842 565.672,597.508 565.5,599.5 Z"/></g>
<g><path style="opacity:1" fill="#d0d0d0" d="M 343.5,595.5 C 343.843,597.483 343.176,598.817 341.5,599.5C 341.157,597.517 341.824,596.183 343.5,595.5 Z"/></g>
<g><path style="opacity:1" fill="#cecece" d="M 531.5,599.5 C 536.085,598.987 540.418,599.654 544.5,601.5C 544.833,602.167 545.167,602.833 545.5,603.5C 544.192,606.73 543.192,610.064 542.5,613.5C 541.833,614.167 541.167,614.833 540.5,615.5C 537.983,609.788 534.983,604.455 531.5,599.5 Z"/></g>
<g><path style="opacity:1" fill="#cdcdcd" d="M 425.5,639.5 C 436.552,640.143 447.219,639.476 457.5,637.5C 462.875,637.828 468.208,637.495 473.5,636.5C 475.99,634.917 478.657,633.917 481.5,633.5C 481.517,629.883 480.517,626.55 478.5,623.5C 475.167,620.167 471.833,616.833 468.5,613.5C 467.534,611.604 467.201,609.604 467.5,607.5C 478.187,607.832 488.854,607.499 499.5,606.5C 502.833,604.5 506.167,602.5 509.5,600.5C 515.463,599.504 521.463,599.171 527.5,599.5C 531.209,607.248 535.209,614.915 539.5,622.5C 534.204,640.046 529.537,657.713 525.5,675.5C 520.067,675.143 514.734,674.143 509.5,672.5C 478.218,663.181 446.885,654.181 415.5,645.5C 415.328,643.508 415.995,641.842 417.5,640.5C 420.086,639.52 422.753,639.187 425.5,639.5 Z"/></g>
<g><path style="opacity:1" fill="#a5a5a5" d="M 365.5,611.5 C 364.384,617.189 363.051,622.855 361.5,628.5C 361.67,630.715 362.337,632.715 363.5,634.5C 374.785,637.821 386.118,640.821 397.5,643.5C 398.183,645.176 399.517,645.843 401.5,645.5C 427.416,653.251 453.416,660.585 479.5,667.5C 480.183,669.176 481.517,669.843 483.5,669.5C 498.054,673.907 512.72,677.907 527.5,681.5C 528.529,676.711 529.863,672.044 531.5,667.5C 533.029,666.653 534.696,665.986 536.5,665.5C 539.379,666.795 542.379,667.462 545.5,667.5C 543.311,679.378 539.978,690.711 535.5,701.5C 470.559,682.297 405.893,662.297 341.5,641.5C 342.875,633.333 344.875,625.333 347.5,617.5C 349.176,616.817 349.843,615.483 349.5,613.5C 349.5,612.833 349.5,612.167 349.5,611.5C 351.333,610.537 353.333,609.87 355.5,609.5C 358.769,610.593 362.103,611.259 365.5,611.5 Z"/></g>
<g><path style="opacity:1" fill="#d0d0d0" d="M 349.5,613.5 C 349.843,615.483 349.176,616.817 347.5,617.5C 347.157,615.517 347.824,614.183 349.5,613.5 Z"/></g>
<g><path style="opacity:1" fill="#e7e7e7" d="M 369.5,619.5 C 393.143,621.49 417.143,622.157 441.5,621.5C 417.189,623.49 392.523,624.157 367.5,623.5C 367.157,621.517 367.824,620.183 369.5,619.5 Z"/></g>
<g><path style="opacity:1" fill="#cecece" d="M 333.5,629.5 C 333.843,631.483 333.176,632.817 331.5,633.5C 331.157,631.517 331.824,630.183 333.5,629.5 Z"/></g>
<g><path style="opacity:1" fill="#aeaeae" d="M 555.5,633.5 C 553.311,645.378 549.978,656.711 545.5,667.5C 542.379,667.462 539.379,666.795 536.5,665.5C 534.696,665.986 533.029,666.653 531.5,667.5C 534.44,656.017 537.773,644.684 541.5,633.5C 542.8,632.892 544.133,632.225 545.5,631.5C 548.642,633.119 551.975,633.785 555.5,633.5 Z"/></g>
<g><path style="opacity:1" fill="#e6e6e6" d="M 457.5,637.5 C 447.219,639.476 436.552,640.143 425.5,639.5C 435.781,637.524 446.448,636.857 457.5,637.5 Z"/></g>
<g><path style="opacity:1" fill="#a1a1a1" d="M 341.5,641.5 C 405.893,662.297 470.559,682.297 535.5,701.5C 533.793,710.962 531.459,720.295 528.5,729.5C 527.377,730.544 526.044,731.21 524.5,731.5C 497.524,723.284 470.524,715.284 443.5,707.5C 442.817,705.824 441.483,705.157 439.5,705.5C 408.835,696.834 378.168,688.167 347.5,679.5C 346.817,677.824 345.483,677.157 343.5,677.5C 339.394,677.696 336.061,676.363 333.5,673.5C 333.5,672.167 333.5,670.833 333.5,669.5C 333.187,666.753 333.52,664.086 334.5,661.5C 336.705,654.54 339.038,647.873 341.5,641.5 Z"/></g>
<g><path style="opacity:1" fill="#d1d1d1" d="M 397.5,643.5 C 399.483,643.157 400.817,643.824 401.5,645.5C 399.517,645.843 398.183,645.176 397.5,643.5 Z"/></g>
<g><path style="opacity:1" fill="#d1d1d1" d="M 479.5,667.5 C 481.483,667.157 482.817,667.824 483.5,669.5C 481.517,669.843 480.183,669.176 479.5,667.5 Z"/></g>
<g><path style="opacity:1" fill="#cbcbcb" d="M 333.5,669.5 C 333.5,670.833 333.5,672.167 333.5,673.5C 332.414,673.38 331.747,672.713 331.5,671.5C 331.747,670.287 332.414,669.62 333.5,669.5 Z"/></g>
<g><path style="opacity:1" fill="#cecece" d="M 343.5,677.5 C 345.483,677.157 346.817,677.824 347.5,679.5C 345.517,679.843 344.183,679.176 343.5,677.5 Z"/></g>
<g><path style="opacity:1" fill="#d0d0d0" d="M 339.5,687.5 C 341.483,687.157 342.817,687.824 343.5,689.5C 341.517,689.843 340.183,689.176 339.5,687.5 Z"/></g>
<g><path style="opacity:1" fill="#cfcfcf" d="M 373.5,697.5 C 375.483,697.157 376.817,697.824 377.5,699.5C 375.517,699.843 374.183,699.176 373.5,697.5 Z"/></g>
<g><path style="opacity:1" fill="#cbcbcb" d="M 439.5,705.5 C 441.483,705.157 442.817,705.824 443.5,707.5C 441.517,707.843 440.183,707.176 439.5,705.5 Z"/></g>
<g><path style="opacity:1" fill="#d0d0d0" d="M 421.5,711.5 C 423.483,711.157 424.817,711.824 425.5,713.5C 423.517,713.843 422.183,713.176 421.5,711.5 Z"/></g>
<g><path style="opacity:1" fill="#777777" d="M 289.5,885.5 C 290.183,887.176 291.517,887.843 293.5,887.5C 293.5,877.5 293.5,867.5 293.5,857.5C 296.167,857.5 298.833,857.5 301.5,857.5C 301.5,872.833 301.5,888.167 301.5,903.5C 296.915,904.013 292.582,903.346 288.5,901.5C 284.114,892.727 279.78,884.06 275.5,875.5C 274.817,873.824 273.483,873.157 271.5,873.5C 271.5,883.5 271.5,893.5 271.5,903.5C 268.167,903.5 264.833,903.5 261.5,903.5C 261.5,888.167 261.5,872.833 261.5,857.5C 266.167,857.5 270.833,857.5 275.5,857.5C 280.14,866.78 284.807,876.114 289.5,885.5 Z"/></g>
<g><path style="opacity:1" fill="#898989" d="M 293.5,857.5 C 293.5,867.5 293.5,877.5 293.5,887.5C 291.517,887.843 290.183,887.176 289.5,885.5C 290.833,876.167 292.167,866.833 293.5,857.5 Z"/></g>
<g><path style="opacity:1" fill="#878887" d="M 301.5,857.5 C 302.831,864.803 303.498,872.47 303.5,880.5C 303.498,888.53 302.831,896.197 301.5,903.5C 301.5,888.167 301.5,872.833 301.5,857.5 Z"/></g>
<g><path style="opacity:1" fill="#767676" d="M 391.5,857.5 C 395.5,857.5 399.5,857.5 403.5,857.5C 403.5,872.833 403.5,888.167 403.5,903.5C 399.5,903.5 395.5,903.5 391.5,903.5C 391.5,888.167 391.5,872.833 391.5,857.5 Z"/></g>
<g><path style="opacity:1" fill="#787878" d="M 457.5,903.5 C 457.832,892.147 457.499,880.814 456.5,869.5C 455.066,870.588 454.066,871.922 453.5,873.5C 450.828,880.175 448.161,886.842 445.5,893.5C 442.833,893.5 440.167,893.5 437.5,893.5C 434.284,887.736 431.617,881.736 429.5,875.5C 429.5,874.167 429.5,872.833 429.5,871.5C 428.167,871.5 426.833,871.5 425.5,871.5C 425.5,882.167 425.5,892.833 425.5,903.5C 422.167,903.5 418.833,903.5 415.5,903.5C 415.5,888.167 415.5,872.833 415.5,857.5C 420.833,857.5 426.167,857.5 431.5,857.5C 434.167,864.833 436.833,872.167 439.5,879.5C 440.833,879.5 442.167,879.5 443.5,879.5C 445.61,871.95 448.277,864.617 451.5,857.5C 456.833,857.5 462.167,857.5 467.5,857.5C 467.5,872.833 467.5,888.167 467.5,903.5C 464.167,903.5 460.833,903.5 457.5,903.5 Z"/></g>
<g><path style="opacity:1" fill="#797979" d="M 483.5,877.5 C 485.176,876.817 485.843,875.483 485.5,873.5C 486.517,868.116 488.517,863.116 491.5,858.5C 496.167,857.167 500.833,857.167 505.5,858.5C 509.549,867.306 513.215,876.306 516.5,885.5C 518.79,891.364 520.456,897.364 521.5,903.5C 517.5,903.5 513.5,903.5 509.5,903.5C 509.84,900.856 509.173,898.523 507.5,896.5C 500.866,895.503 494.2,895.17 487.5,895.5C 487.84,898.144 487.173,900.477 485.5,902.5C 481.5,903.833 477.5,903.833 473.5,902.5C 477.427,894.382 480.76,886.048 483.5,877.5 Z"/></g>
<g><path style="opacity:1" fill="#b7b7b7" d="M 545.5,857.5 C 544.817,859.176 543.483,859.843 541.5,859.5C 542.183,857.824 543.517,857.157 545.5,857.5 Z"/></g>
<g><path style="opacity:1" fill="#767676" d="M 613.5,865.5 C 606.416,864.874 599.75,865.541 593.5,867.5C 593.5,869.5 593.5,871.5 593.5,873.5C 599.074,875.453 605.074,876.12 611.5,875.5C 611.5,878.167 611.5,880.833 611.5,883.5C 605.5,883.5 599.5,883.5 593.5,883.5C 593.5,886.833 593.5,890.167 593.5,893.5C 599.75,895.459 606.416,896.126 613.5,895.5C 613.5,898.167 613.5,900.833 613.5,903.5C 602.833,903.5 592.167,903.5 581.5,903.5C 581.5,888.167 581.5,872.833 581.5,857.5C 592.167,857.5 602.833,857.5 613.5,857.5C 613.5,860.167 613.5,862.833 613.5,865.5 Z"/></g>
<g><path style="opacity:1" fill="#797979" d="M 359.5,873.5 C 359.5,877.5 359.5,881.5 359.5,885.5C 359.085,894.58 354.418,899.914 345.5,901.5C 343.517,901.157 342.183,901.824 341.5,903.5C 336.786,903.827 332.12,903.493 327.5,902.5C 324.344,900.311 321.011,898.644 317.5,897.5C 316.167,893.5 314.833,889.5 313.5,885.5C 313.5,882.167 313.5,878.833 313.5,875.5C 313.907,871.129 315.24,867.129 317.5,863.5C 321.011,862.356 324.344,860.689 327.5,858.5C 338.389,856.062 348.056,858.396 356.5,865.5C 358.083,867.99 359.083,870.657 359.5,873.5 Z"/></g>
<g><path style="opacity:1" fill="#797979" d="M 545.5,857.5 C 553.047,857.027 560.38,858.027 567.5,860.5C 569.26,863.212 569.927,866.212 569.5,869.5C 566.266,868.424 562.932,867.757 559.5,867.5C 557.952,866.206 555.952,865.539 553.5,865.5C 551.048,865.539 549.048,866.206 547.5,867.5C 541.963,870.043 539.296,874.376 539.5,880.5C 539.892,884.257 540.559,887.923 541.5,891.5C 543.718,891.614 545.718,892.28 547.5,893.5C 549.048,894.794 551.048,895.461 553.5,895.5C 555.952,895.461 557.952,894.794 559.5,893.5C 559.5,890.833 559.5,888.167 559.5,885.5C 557.5,885.5 555.5,885.5 553.5,885.5C 553.5,882.833 553.5,880.167 553.5,877.5C 559.5,877.5 565.5,877.5 571.5,877.5C 571.5,884.833 571.5,892.167 571.5,899.5C 568.833,900.167 566.167,900.833 563.5,901.5C 560.918,901.025 558.918,901.692 557.5,903.5C 553.5,903.5 549.5,903.5 545.5,903.5C 544.817,901.824 543.483,901.157 541.5,901.5C 540.022,901.762 538.689,901.429 537.5,900.5C 532.1,896.787 528.767,891.787 527.5,885.5C 527.5,882.167 527.5,878.833 527.5,875.5C 527.5,874.833 527.5,874.167 527.5,873.5C 529.176,872.817 529.843,871.483 529.5,869.5C 531.751,866.242 534.417,863.242 537.5,860.5C 538.689,859.571 540.022,859.238 541.5,859.5C 543.483,859.843 544.817,859.176 545.5,857.5 Z"/></g>
<g><path style="opacity:1" fill="#b1b1b1" d="M 341.5,867.5 C 338.833,867.5 336.167,867.5 333.5,867.5C 334.334,866.252 335.667,865.585 337.5,865.5C 339.333,865.585 340.666,866.252 341.5,867.5 Z"/></g>
<g><path style="opacity:1" fill="#b2b2b2" d="M 559.5,867.5 C 555.5,867.5 551.5,867.5 547.5,867.5C 549.048,866.206 551.048,865.539 553.5,865.5C 555.952,865.539 557.952,866.206 559.5,867.5 Z"/></g>
<g><path style="opacity:1" fill="#a7a8a7" d="M 613.5,865.5 C 607.25,867.459 600.584,868.126 593.5,867.5C 599.75,865.541 606.416,864.874 613.5,865.5 Z"/></g>
<g><path style="opacity:1" fill="#ebebeb" d="M 333.5,867.5 C 336.167,867.5 338.833,867.5 341.5,867.5C 345.025,869.025 347.025,871.691 347.5,875.5C 347.5,878.833 347.5,882.167 347.5,885.5C 347.025,889.309 345.025,891.975 341.5,893.5C 338.167,893.5 334.833,893.5 331.5,893.5C 328.92,892.385 327.254,890.385 326.5,887.5C 325.167,882.167 325.167,876.833 326.5,871.5C 328.132,868.854 330.465,867.521 333.5,867.5 Z"/></g>
<g><path style="opacity:1" fill="#a1a1a1" d="M 429.5,875.5 C 428.167,884.833 426.833,894.167 425.5,903.5C 425.5,892.833 425.5,882.167 425.5,871.5C 426.833,871.5 428.167,871.5 429.5,871.5C 429.5,872.833 429.5,874.167 429.5,875.5 Z"/></g>
<g><path style="opacity:1" fill="#8e8e8e" d="M 457.5,903.5 C 456.167,893.5 454.833,883.5 453.5,873.5C 454.066,871.922 455.066,870.588 456.5,869.5C 457.499,880.814 457.832,892.147 457.5,903.5 Z"/></g>
<g><path style="opacity:1" fill="#a0a0a0" d="M 529.5,869.5 C 529.843,871.483 529.176,872.817 527.5,873.5C 527.157,871.517 527.824,870.183 529.5,869.5 Z"/></g>
<g><path style="opacity:1" fill="#a0a0a0" d="M 275.5,875.5 C 274.167,884.833 272.833,894.167 271.5,903.5C 271.5,893.5 271.5,883.5 271.5,873.5C 273.483,873.157 274.817,873.824 275.5,875.5 Z"/></g>
<g><path style="opacity:1" fill="#e3e3e3" d="M 503.5,885.5 C 499.671,886.069 496.337,885.402 493.5,883.5C 494.011,878.467 495.677,873.801 498.5,869.5C 501.182,874.544 502.849,879.877 503.5,885.5 Z"/></g>
<g><path style="opacity:1" fill="#acacac" d="M 593.5,873.5 C 600.167,873.5 606.833,873.5 613.5,873.5C 614.069,877.329 613.402,880.663 611.5,883.5C 611.5,880.833 611.5,878.167 611.5,875.5C 605.074,876.12 599.074,875.453 593.5,873.5 Z"/></g>
<g><path style="opacity:1" fill="#9f9f9f" d="M 485.5,873.5 C 485.843,875.483 485.176,876.817 483.5,877.5C 483.157,875.517 483.824,874.183 485.5,873.5 Z"/></g>
<g><path style="opacity:1" fill="#b5b6b5" d="M 553.5,877.5 C 553.5,880.167 553.5,882.833 553.5,885.5C 552.252,884.666 551.585,883.333 551.5,881.5C 551.585,879.667 552.252,878.334 553.5,877.5 Z"/></g>
<g><path style="opacity:1" fill="#b3b3b3" d="M 359.5,873.5 C 360.794,875.048 361.461,877.048 361.5,879.5C 361.461,881.952 360.794,883.952 359.5,885.5C 359.5,881.5 359.5,877.5 359.5,873.5 Z"/></g>
<g><path style="opacity:1" fill="#c7c7c7" d="M 313.5,875.5 C 313.5,878.833 313.5,882.167 313.5,885.5C 312.223,884.306 311.556,882.64 311.5,880.5C 311.556,878.36 312.223,876.694 313.5,875.5 Z"/></g>
<g><path style="opacity:1" fill="#9a9a9a" d="M 347.5,875.5 C 348.777,876.694 349.444,878.36 349.5,880.5C 349.444,882.64 348.777,884.306 347.5,885.5C 347.5,882.167 347.5,878.833 347.5,875.5 Z"/></g>
<g><path style="opacity:1" fill="#c8c8c8" d="M 527.5,875.5 C 527.5,878.833 527.5,882.167 527.5,885.5C 526.223,884.306 525.556,882.64 525.5,880.5C 525.556,878.36 526.223,876.694 527.5,875.5 Z"/></g>
<g><path style="opacity:1" fill="#bfbfbf" d="M 493.5,883.5 C 496.337,885.402 499.671,886.069 503.5,885.5C 499.971,887.423 495.971,888.089 491.5,887.5C 491.157,885.517 491.824,884.183 493.5,883.5 Z"/></g>
<g><path style="opacity:1" fill="#b0b0b0" d="M 331.5,893.5 C 334.833,893.5 338.167,893.5 341.5,893.5C 340.306,894.777 338.64,895.444 336.5,895.5C 334.36,895.444 332.694,894.777 331.5,893.5 Z"/></g>
<g><path style="opacity:1" fill="#a8a8a8" d="M 437.5,893.5 C 440.167,893.5 442.833,893.5 445.5,893.5C 444.666,894.748 443.333,895.415 441.5,895.5C 439.667,895.415 438.334,894.748 437.5,893.5 Z"/></g>
<g><path style="opacity:1" fill="#b2b2b2" d="M 547.5,893.5 C 551.5,893.5 555.5,893.5 559.5,893.5C 557.952,894.794 555.952,895.461 553.5,895.5C 551.048,895.461 549.048,894.794 547.5,893.5 Z"/></g>
<g><path style="opacity:1" fill="#adadad" d="M 593.5,893.5 C 600.833,893.5 608.167,893.5 615.5,893.5C 616.069,897.329 615.402,900.663 613.5,903.5C 613.5,900.833 613.5,898.167 613.5,895.5C 606.416,896.126 599.75,895.459 593.5,893.5 Z"/></g>
<g><path style="opacity:1" fill="#a7a7a7" d="M 345.5,901.5 C 344.817,903.176 343.483,903.843 341.5,903.5C 342.183,901.824 343.517,901.157 345.5,901.5 Z"/></g>
<g><path style="opacity:1" fill="#b1b1b1" d="M 541.5,901.5 C 543.483,901.157 544.817,901.824 545.5,903.5C 543.517,903.843 542.183,903.176 541.5,901.5 Z"/></g>
<g><path style="opacity:1" fill="#a9a9a9" d="M 563.5,901.5 C 562.082,903.308 560.082,903.975 557.5,903.5C 558.918,901.692 560.918,901.025 563.5,901.5 Z"/></g>
<g><path style="opacity:1" fill="#797979" d="M 253.5,957.5 C 255.176,956.817 255.843,955.483 255.5,953.5C 256.517,948.116 258.517,943.116 261.5,938.5C 266.167,937.167 270.833,937.167 275.5,938.5C 279.549,947.306 283.215,956.306 286.5,965.5C 288.79,971.364 290.456,977.364 291.5,983.5C 287.5,983.5 283.5,983.5 279.5,983.5C 279.84,980.856 279.173,978.523 277.5,976.5C 270.866,975.503 264.2,975.17 257.5,975.5C 257.84,978.144 257.173,980.477 255.5,982.5C 251.5,983.833 247.5,983.833 243.5,982.5C 247.427,974.382 250.76,966.048 253.5,957.5 Z"/></g>
<g><path style="opacity:1" fill="#797979" d="M 301.5,937.5 C 301.157,939.483 301.824,940.817 303.5,941.5C 305.892,947.343 307.892,953.343 309.5,959.5C 309.157,961.483 309.824,962.817 311.5,963.5C 312.473,965.447 313.473,967.447 314.5,969.5C 318.781,958.987 322.448,948.321 325.5,937.5C 329.5,937.5 333.5,937.5 337.5,937.5C 337.799,939.604 337.466,941.604 336.5,943.5C 330.917,956.656 325.917,969.99 321.5,983.5C 316.261,984.037 311.261,983.37 306.5,981.5C 301.608,966.816 295.941,952.482 289.5,938.5C 293.445,937.509 297.445,937.176 301.5,937.5 Z"/></g>
<g><path style="opacity:1" fill="#797979" d="M 345.5,957.5 C 347.176,956.817 347.843,955.483 347.5,953.5C 348.517,948.116 350.517,943.116 353.5,938.5C 358.167,937.167 362.833,937.167 367.5,938.5C 371.549,947.306 375.215,956.306 378.5,965.5C 380.79,971.364 382.456,977.364 383.5,983.5C 379.5,983.5 375.5,983.5 371.5,983.5C 371.84,980.856 371.173,978.523 369.5,976.5C 362.866,975.503 356.2,975.17 349.5,975.5C 349.84,978.144 349.173,980.477 347.5,982.5C 343.5,983.833 339.5,983.833 335.5,982.5C 339.427,974.382 342.76,966.048 345.5,957.5 Z"/></g>
<g><path style="opacity:1" fill="#767676" d="M 391.5,937.5 C 395.5,937.5 399.5,937.5 403.5,937.5C 403.5,952.833 403.5,968.167 403.5,983.5C 399.5,983.5 395.5,983.5 391.5,983.5C 391.5,968.167 391.5,952.833 391.5,937.5 Z"/></g>
<g><path style="opacity:1" fill="#767676" d="M 427.5,973.5 C 433.75,975.459 440.416,976.126 447.5,975.5C 447.5,978.167 447.5,980.833 447.5,983.5C 436.833,983.5 426.167,983.5 415.5,983.5C 415.5,968.167 415.5,952.833 415.5,937.5C 419.5,937.5 423.5,937.5 427.5,937.5C 427.5,949.5 427.5,961.5 427.5,973.5 Z"/></g>
<g><path style="opacity:1" fill="#797979" d="M 451.5,983.5 C 451.5,982.167 451.5,980.833 451.5,979.5C 454.17,972.157 456.836,964.824 459.5,957.5C 461.176,956.817 461.843,955.483 461.5,953.5C 462.517,948.116 464.517,943.116 467.5,938.5C 472.167,937.167 476.833,937.167 481.5,938.5C 485.549,947.306 489.215,956.306 492.5,965.5C 494.79,971.364 496.456,977.364 497.5,983.5C 493.5,983.5 489.5,983.5 485.5,983.5C 485.84,980.856 485.173,978.523 483.5,976.5C 476.866,975.503 470.2,975.17 463.5,975.5C 463.84,978.144 463.173,980.477 461.5,982.5C 458.232,983.487 454.898,983.82 451.5,983.5 Z"/></g>
<g><path style="opacity:1" fill="#777777" d="M 535.5,981.5 C 532.918,981.025 530.918,981.692 529.5,983.5C 521.5,983.5 513.5,983.5 505.5,983.5C 505.5,968.167 505.5,952.833 505.5,937.5C 514.192,937.169 522.859,937.502 531.5,938.5C 540.73,940.654 543.73,946.321 540.5,955.5C 539.5,956.5 538.5,957.5 537.5,958.5C 544.229,964.552 545.229,971.552 540.5,979.5C 539.158,981.005 537.492,981.672 535.5,981.5 Z"/></g>
<g><path style="opacity:1" fill="#767676" d="M 565.5,973.5 C 571.75,975.459 578.416,976.126 585.5,975.5C 585.5,978.167 585.5,980.833 585.5,983.5C 574.833,983.5 564.167,983.5 553.5,983.5C 553.5,968.167 553.5,952.833 553.5,937.5C 557.5,937.5 561.5,937.5 565.5,937.5C 565.5,949.5 565.5,961.5 565.5,973.5 Z"/></g>
<g><path style="opacity:1" fill="#767676" d="M 625.5,945.5 C 618.416,944.874 611.75,945.541 605.5,947.5C 605.5,949.5 605.5,951.5 605.5,953.5C 611.074,955.453 617.074,956.12 623.5,955.5C 623.5,958.167 623.5,960.833 623.5,963.5C 617.5,963.5 611.5,963.5 605.5,963.5C 605.5,966.833 605.5,970.167 605.5,973.5C 611.75,975.459 618.416,976.126 625.5,975.5C 625.5,978.167 625.5,980.833 625.5,983.5C 614.833,983.5 604.167,983.5 593.5,983.5C 593.5,968.167 593.5,952.833 593.5,937.5C 604.167,937.5 614.833,937.5 625.5,937.5C 625.5,940.167 625.5,942.833 625.5,945.5 Z"/></g>
<g><path style="opacity:1" fill="#a2a2a2" d="M 301.5,937.5 C 303.176,938.183 303.843,939.517 303.5,941.5C 301.824,940.817 301.157,939.483 301.5,937.5 Z"/></g>
<g><path style="opacity:1" fill="#a7a8a7" d="M 625.5,945.5 C 619.25,947.459 612.584,948.126 605.5,947.5C 611.75,945.541 618.416,944.874 625.5,945.5 Z"/></g>
<g><path style="opacity:1" fill="#e7e7e7" d="M 517.5,945.5 C 520.898,945.18 524.232,945.513 527.5,946.5C 530.167,949.167 530.167,951.833 527.5,954.5C 524.232,955.487 520.898,955.82 517.5,955.5C 517.5,952.167 517.5,948.833 517.5,945.5 Z"/></g>
<g><path style="opacity:1" fill="#e3e3e3" d="M 273.5,965.5 C 269.671,966.069 266.337,965.402 263.5,963.5C 264.011,958.467 265.677,953.801 268.5,949.5C 271.182,954.544 272.849,959.877 273.5,965.5 Z"/></g>
<g><path style="opacity:1" fill="#e3e3e3" d="M 365.5,965.5 C 361.671,966.069 358.337,965.402 355.5,963.5C 356.011,958.467 357.677,953.801 360.5,949.5C 363.182,954.544 364.849,959.877 365.5,965.5 Z"/></g>
<g><path style="opacity:1" fill="#e3e3e3" d="M 479.5,965.5 C 475.671,966.069 472.337,965.402 469.5,963.5C 470.011,958.467 471.677,953.801 474.5,949.5C 477.182,954.544 478.849,959.877 479.5,965.5 Z"/></g>
<g><path style="opacity:1" fill="#acacac" d="M 605.5,953.5 C 612.167,953.5 618.833,953.5 625.5,953.5C 626.069,957.329 625.402,960.663 623.5,963.5C 623.5,960.833 623.5,958.167 623.5,955.5C 617.074,956.12 611.074,955.453 605.5,953.5 Z"/></g>
<g><path style="opacity:1" fill="#9f9f9f" d="M 255.5,953.5 C 255.843,955.483 255.176,956.817 253.5,957.5C 253.157,955.517 253.824,954.183 255.5,953.5 Z"/></g>
<g><path style="opacity:1" fill="#9f9f9f" d="M 347.5,953.5 C 347.843,955.483 347.176,956.817 345.5,957.5C 345.157,955.517 345.824,954.183 347.5,953.5 Z"/></g>
<g><path style="opacity:1" fill="#9f9f9f" d="M 461.5,953.5 C 461.843,955.483 461.176,956.817 459.5,957.5C 459.157,955.517 459.824,954.183 461.5,953.5 Z"/></g>
<g><path style="opacity:1" fill="#a1a1a1" d="M 309.5,959.5 C 311.176,960.183 311.843,961.517 311.5,963.5C 309.824,962.817 309.157,961.483 309.5,959.5 Z"/></g>
<g><path style="opacity:1" fill="#e7e7e7" d="M 517.5,963.5 C 521.555,963.176 525.555,963.509 529.5,964.5C 532.167,967.833 532.167,971.167 529.5,974.5C 525.555,975.491 521.555,975.824 517.5,975.5C 517.5,971.5 517.5,967.5 517.5,963.5 Z"/></g>
<g><path style="opacity:1" fill="#bfbfbf" d="M 263.5,963.5 C 266.337,965.402 269.671,966.069 273.5,965.5C 269.971,967.423 265.971,968.089 261.5,967.5C 261.157,965.517 261.824,964.183 263.5,963.5 Z"/></g>
<g><path style="opacity:1" fill="#bfbfbf" d="M 355.5,963.5 C 358.337,965.402 361.671,966.069 365.5,965.5C 361.971,967.423 357.971,968.089 353.5,967.5C 353.157,965.517 353.824,964.183 355.5,963.5 Z"/></g>
<g><path style="opacity:1" fill="#bfbfbf" d="M 469.5,963.5 C 472.337,965.402 475.671,966.069 479.5,965.5C 475.971,967.423 471.971,968.089 467.5,967.5C 467.157,965.517 467.824,964.183 469.5,963.5 Z"/></g>
<g><path style="opacity:1" fill="#adadad" d="M 427.5,973.5 C 434.833,973.5 442.167,973.5 449.5,973.5C 449.025,976.082 449.692,978.082 451.5,979.5C 451.5,980.833 451.5,982.167 451.5,983.5C 450.167,983.5 448.833,983.5 447.5,983.5C 447.5,980.833 447.5,978.167 447.5,975.5C 440.416,976.126 433.75,975.459 427.5,973.5 Z"/></g>
<g><path style="opacity:1" fill="#adadad" d="M 565.5,973.5 C 572.833,973.5 580.167,973.5 587.5,973.5C 588.069,977.329 587.402,980.663 585.5,983.5C 585.5,980.833 585.5,978.167 585.5,975.5C 578.416,976.126 571.75,975.459 565.5,973.5 Z"/></g>
<g><path style="opacity:1" fill="#adadad" d="M 605.5,973.5 C 612.833,973.5 620.167,973.5 627.5,973.5C 628.069,977.329 627.402,980.663 625.5,983.5C 625.5,980.833 625.5,978.167 625.5,975.5C 618.416,976.126 611.75,975.459 605.5,973.5 Z"/></g>
<g><path style="opacity:1" fill="#9f9f9f" d="M 535.5,981.5 C 534.082,983.308 532.082,983.975 529.5,983.5C 530.918,981.692 532.918,981.025 535.5,981.5 Z"/></g>
</svg>
